<svg id="Layer_1" data-name="Layer 1" xmlns="http://www.w3.org/2000/svg" viewBox="0 0 902.86 242.89"><defs><style>.cls-1{fill:#fcc610;}</style></defs><path class="cls-1" d="M316.11,583.59l2.76-2.1c1.35,2.39,3,2.92,4.53,2.92,2.66,0,4.7-1.58,4.7-5.48V566.29h3.8v12.57c0,6.47-3.8,9-8.4,9A7.89,7.89,0,0,1,316.11,583.59Z" transform="translate(-62.2 -345)"/><path class="cls-1" d="M343,566.29h16.51v3.28h-12.7v5.19h12V578h-12v6.27H360v3.28H343Z" transform="translate(-62.2 -345)"/><path class="cls-1" d="M369.79,566.29h8.34c6.92,0,11.29,4.82,11.29,10.63s-4.37,10.64-11.29,10.64h-8.34Zm8.17,18a7.36,7.36,0,1,0,0-14.71H373.6v14.71Z" transform="translate(-62.2 -345)"/><path class="cls-1" d="M399.9,566.29h8.33c6.93,0,11.3,4.82,11.3,10.63s-4.37,10.64-11.3,10.64H399.9Zm8.17,18a7.36,7.36,0,1,0,0-14.71H403.7v14.71Z" transform="translate(-62.2 -345)"/><path class="cls-1" d="M437.19,566.29h3.61l9.59,21.27h-3.88l-1.67-3.68H433.15l-1.67,3.68H427.6Zm6.33,14.57-2.42-5.51c-.92-2.1-2.1-5-2.1-5s-1.15,2.83-2.11,5l-2.42,5.51Z" transform="translate(-62.2 -345)"/><path class="cls-1" d="M459.78,566.29h3.81v8.5H474v-8.5h3.81v21.27H474V578H463.59v9.52h-3.81Z" transform="translate(-62.2 -345)"/><path class="cls-1" d="M503,566.29h3.32l2.95,4.14c1.51,2.1,4.83,6.82,4.83,6.82s3.32-4.69,4.79-6.79l3-4.17h3.31v21.27h-3.81V572.79s-.65,1.18-2,3.18l-5.22,7.49-5.29-7.55c-1.31-1.91-2-3.12-2-3.12v14.77H503Z" transform="translate(-62.2 -345)"/><path class="cls-1" d="M544.15,566.29h3.61l9.59,21.27h-3.88l-1.67-3.68H540.11l-1.67,3.68h-3.88Zm6.33,14.57-2.42-5.51c-.92-2.1-2.1-5-2.1-5s-1.15,2.83-2.11,5l-2.43,5.51Z" transform="translate(-62.2 -345)"/><path class="cls-1" d="M566.74,566.29h9c6.11,0,9.36,3.64,9.36,8.14a7.54,7.54,0,0,1-4.37,6.89l4.7,6.24H581l-3.71-5.19a11.47,11.47,0,0,1-1.9.17h-4.82v5h-3.81Zm9.16,13a4.86,4.86,0,1,0,0-9.71h-5.38v9.71Z" transform="translate(-62.2 -345)"/><path class="cls-1" d="M595.4,566.29h3.81v21.27H595.4Z" transform="translate(-62.2 -345)"/><path class="cls-1" d="M610.5,566.29h3.87L622,576.73c1.51,2.07,3.25,5,3.25,5V566.29h3.81v21.27h-3.94l-7.26-9.91c-1.83-2.53-3.54-5.42-3.54-5.42v15.33H610.5Z" transform="translate(-62.2 -345)"/><path class="cls-1" d="M640.34,566.29h16.51v3.28h-12.7v5.19h12V578h-12v6.27h13.16v3.28h-17Z" transform="translate(-62.2 -345)"/><path class="cls-1" d="M680.23,584.84l1.48-2.89a10.57,10.57,0,0,0,7.06,2.49c2.29,0,4.59-1.08,4.59-3s-2.2-2.53-4.37-3c-3.9-.92-7.94-2.17-7.94-6.4,0-4,3.78-6,7.72-6a12.86,12.86,0,0,1,7.55,2.3l-1.48,2.92a11,11,0,0,0-6.07-1.77c-1.42,0-3.85.59-3.85,2.53,0,1.7,1.91,2.26,4.47,2.88,4,1,7.94,2.47,7.94,6.6,0,4.47-4.4,6.47-8.6,6.47C684.1,587.89,681.64,586.15,680.23,584.84Z" transform="translate(-62.2 -345)"/><path class="cls-1" d="M707.87,566.29h9c6.11,0,9.36,3.64,9.36,8.11s-3.25,8.1-9.39,8.1h-5.12v5.06h-3.81Zm9.19,12.93a4.83,4.83,0,1,0,0-9.65h-5.42v9.65Z" transform="translate(-62.2 -345)"/><path class="cls-1" d="M735.68,576.92a11.2,11.2,0,1,1,11.19,11A10.91,10.91,0,0,1,735.68,576.92Zm18.42,0a7.23,7.23,0,1,0-7.19,7.52A7.3,7.3,0,0,0,754.1,576.92Z" transform="translate(-62.2 -345)"/><path class="cls-1" d="M768.54,566.29h9c6.1,0,9.35,3.64,9.35,8.14a7.53,7.53,0,0,1-4.36,6.89l4.69,6.24h-4.43l-3.71-5.19a11.57,11.57,0,0,1-1.9.17h-4.83v5h-3.81Zm9.16,13a4.86,4.86,0,1,0,0-9.71h-5.38v9.71Z" transform="translate(-62.2 -345)"/><path class="cls-1" d="M802.59,569.57H795.1v-3.28h18.78v3.28h-7.49v18h-3.8Z" transform="translate(-62.2 -345)"/><path class="cls-1" d="M822.45,584.84l1.48-2.89a10.56,10.56,0,0,0,7.05,2.49c2.3,0,4.6-1.08,4.6-3s-2.2-2.53-4.37-3c-3.9-.92-7.94-2.17-7.94-6.4,0-4,3.78-6,7.71-6a12.81,12.81,0,0,1,7.55,2.3l-1.47,2.92a11,11,0,0,0-6.08-1.77c-1.41,0-3.84.59-3.84,2.53,0,1.7,1.91,2.26,4.47,2.88,4,1,7.94,2.47,7.94,6.6,0,4.47-4.4,6.47-8.6,6.47C826.32,587.89,823.86,586.15,822.45,584.84Z" transform="translate(-62.2 -345)"/><path class="cls-1" d="M863.22,576.89A10.91,10.91,0,0,1,874.42,566a11,11,0,0,1,7.15,2.5l-2.2,2.56a7.44,7.44,0,0,0-4.69-1.61,7.52,7.52,0,0,0-.23,15,7.58,7.58,0,0,0,5.35-2.1l2.33,2.63a11.34,11.34,0,0,1-7.71,2.92A10.92,10.92,0,0,1,863.22,576.89Z" transform="translate(-62.2 -345)"/><path class="cls-1" d="M891.62,566.29h3.81v18h12.74v3.28H891.62Z" transform="translate(-62.2 -345)"/><path class="cls-1" d="M917.62,579.09v-12.8h3.81v12.6c0,3.52,2,5.52,5.25,5.52s5.22-2,5.22-5.52v-12.6h3.81v12.8c0,5.48-3.54,8.8-9,8.8S917.62,584.57,917.62,579.09Z" transform="translate(-62.2 -345)"/><path class="cls-1" d="M946.78,566.29h9.91c3.51,0,6.37,1.64,6.37,5.38a4.42,4.42,0,0,1-2.23,3.81,5.43,5.43,0,0,1,4.23,5.45c0,4.37-3.31,6.63-8.07,6.63H946.78Zm9.71,8c1.64,0,2.6-.88,2.6-2.33s-.92-2.43-2.76-2.43h-5.75v4.76Zm.23,9.95c2.66,0,4.37-1.09,4.37-3.29s-1.58-3.41-4-3.41h-6.5v6.7Z" transform="translate(-62.2 -345)"/><path class="cls-1" d="M766.31,345.05a3,3,0,0,0-3,3V487.22a2.05,2.05,0,0,1-1.33,1.94,2,2,0,0,1-2.29-.52L627.73,346.86a5.74,5.74,0,0,0-6-1.52,5.81,5.81,0,0,0-3.87,5.59V520a3,3,0,0,0,6,0V380.81a2.08,2.08,0,0,1,1.33-1.95,2.05,2.05,0,0,1,2.29.53L759.48,521.17a5.72,5.72,0,0,0,6,1.51,5.79,5.79,0,0,0,3.87-5.58v-169A3,3,0,0,0,766.31,345.05Z" transform="translate(-62.2 -345)"/><path class="cls-1" d="M520.77,345c-38.75,0-70.28,28.41-70.28,63.32s31.53,63.32,70.28,63.32S591,443.23,591,408.32,559.52,345,520.77,345Zm0,120.59c-27.35,0-49.6-25.69-49.6-57.27S493.42,351,520.77,351s49.6,25.7,49.6,57.28S548.12,465.59,520.77,465.59Z" transform="translate(-62.2 -345)"/><path class="cls-1" d="M962.3,518.06l-70.67-170a4.87,4.87,0,0,0-4.51-3H869.9a4.87,4.87,0,0,0-4.51,3l-70.92,170.6a3.14,3.14,0,0,0,1.42,4,3.06,3.06,0,0,0,1.31.3,3.13,3.13,0,0,0,1.08-.2,3,3,0,0,0,1.71-1.66l17.71-42.6a4,4,0,0,1,3.69-2.46H918a4,4,0,0,1,3.69,2.46l16.88,40.61a6.22,6.22,0,0,0,5.76,3.85H959a3.56,3.56,0,0,0,3.28-4.92Zm-94.23-160.7a1.73,1.73,0,0,1,1.64-1.09h0a1.75,1.75,0,0,1,1.64,1.09l45.82,110.22a1.73,1.73,0,0,1-.16,1.65,1.75,1.75,0,0,1-1.47.79H823.87a1.76,1.76,0,0,1-1.62-2.44Z" transform="translate(-62.2 -345)"/><path class="cls-1" d="M586.54,499.57c-13.29,6.34-60.54,25.55-110.77,7-38.36-14.19-69.25-47.16-91.81-98a4,4,0,0,1,.77-4.41l51.1-53.92a3.07,3.07,0,0,0,.34-3.89,3,3,0,0,0-4.66-.34L340,442.57a1.78,1.78,0,0,1-3.07-1.22V349.92A4.89,4.89,0,0,0,332,345H319.5a4.89,4.89,0,0,0-4.88,4.88V518.09A4.89,4.89,0,0,0,319.5,523H332a4.89,4.89,0,0,0,4.88-4.88v-61a6.21,6.21,0,0,1,1.72-4.3l27.06-28.56a1.84,1.84,0,0,1,1.58-.56,1.87,1.87,0,0,1,1.4,1c17.84,33.41,39.63,58.72,64.77,75.22a140.54,140.54,0,0,0,68.1,22.93c3.69.26,7.31.38,10.86.38,38,0,68.06-13.63,77-18.13a3.09,3.09,0,0,0,1.31-4.21A3.13,3.13,0,0,0,586.54,499.57Z" transform="translate(-62.2 -345)"/><path class="cls-1" d="M258.47,535.78,245,522.34a8.14,8.14,0,0,0-5.82-2.41h0a8.14,8.14,0,0,0-5.82,2.41L225,530.77a7.67,7.67,0,0,1-5.46,2.26h0a7.63,7.63,0,0,1-5.45-2.26l-8.43-8.42a8.19,8.19,0,0,0-5.82-2.4h0a8.18,8.18,0,0,0-5.83,2.41l-8.42,8.43a7.64,7.64,0,0,1-5.46,2.26h0a7.67,7.67,0,0,1-5.46-2.26l-8.42-8.42a8.22,8.22,0,0,0-5.82-2.41h0a8.21,8.21,0,0,0-5.82,2.42l-8.42,8.43a7.65,7.65,0,0,1-5.46,2.26h0a7.67,7.67,0,0,1-5.46-2.26l-8.43-8.42A8.18,8.18,0,0,0,121,520h0a8.15,8.15,0,0,0-5.82,2.42l-8.42,8.43a7.71,7.71,0,0,1-5.46,2.26h0a7.65,7.65,0,0,1-5.46-2.26l-8.43-8.42A8.18,8.18,0,0,0,81.54,520h0a8.15,8.15,0,0,0-5.82,2.42L62.27,535.87a.27.27,0,0,0-.05.28.25.25,0,0,0,.23.16l195.84-.09a.26.26,0,0,0,.23-.16A.26.26,0,0,0,258.47,535.78Z" transform="translate(-62.2 -345)"/><path class="cls-1" d="M205.6,548A8.25,8.25,0,0,0,194,548l-8.42,8.43a7.73,7.73,0,0,1-10.92,0L166.19,548a8.22,8.22,0,0,0-5.82-2.41h0a8.17,8.17,0,0,0-5.82,2.42l-8.42,8.43a7.67,7.67,0,0,1-5.46,2.26h0a7.67,7.67,0,0,1-5.46-2.26l-8.43-8.42a8.18,8.18,0,0,0-5.82-2.41h0a8.15,8.15,0,0,0-5.82,2.42l-13.44,13.45a.26.26,0,0,0,.18.44l117-.06a.26.26,0,0,0,.24-.15.24.24,0,0,0-.06-.28Z" transform="translate(-62.2 -345)"/><path class="cls-1" d="M166.19,573.66a8.25,8.25,0,0,0-11.65,0L141.1,587.12a.25.25,0,0,0-.06.28.26.26,0,0,0,.24.16l38.18,0a.26.26,0,0,0,.24-.16.25.25,0,0,0-.06-.28Z" transform="translate(-62.2 -345)"/><path class="cls-1" d="M219,481.63c-.79-.88-1.6-1.76-2.43-2.6a2.89,2.89,0,0,0-4.09-.11l-21.15,19.7a4.32,4.32,0,0,1-5.48.31l-1.09-.77a4.31,4.31,0,0,1-1.52-5.26l11.54-26.52a2.92,2.92,0,0,0-1.46-3.83c-1.08-.49-2.17-1-3.26-1.42a2.91,2.91,0,0,0-3.8,1.53l-11.54,26.5a4.32,4.32,0,0,1-4.9,2.47l-1.32-.28a4.31,4.31,0,0,1-3.49-4.22l0-47.42a16.1,16.1,0,0,0,6.7-8.77,21.21,21.21,0,0,0,10.06-18.07l0-64.22a3.61,3.61,0,0,0-3.61-3.61h-35.7a3.61,3.61,0,0,0-3.61,3.61l0,64.22A21.21,21.21,0,0,0,149,430.94a16.1,16.1,0,0,0,6.7,8.77l0,47.42a4.31,4.31,0,0,1-3.49,4.22l-1.32.28a4.32,4.32,0,0,1-4.9-2.47l-11.54-26.5a2.91,2.91,0,0,0-3.8-1.53c-1.09.45-2.18.93-3.26,1.42a2.92,2.92,0,0,0-1.46,3.83l11.54,26.52a4.31,4.31,0,0,1-1.52,5.26l-1.09.77a4.32,4.32,0,0,1-5.48-.31l-21.15-19.7a2.89,2.89,0,0,0-4.09.11c-.83.84-1.64,1.72-2.43,2.6a2.91,2.91,0,0,0,.18,4.09l24,22.38,4.49,4.18a2.67,2.67,0,0,0,1.85.73h.17a2.83,2.83,0,0,0,2-1,34.4,34.4,0,0,1,4.32-4.3A34,34,0,0,1,156,500.17a32.77,32.77,0,0,1,8.7,0A34,34,0,0,1,182,507.71a34.48,34.48,0,0,1,4.33,4.3,2.79,2.79,0,0,0,2,1h.17a2.67,2.67,0,0,0,1.85-.73l4.49-4.18,24-22.38A2.91,2.91,0,0,0,219,481.63Z" transform="translate(-62.2 -345)"/></svg>